<?xml version="1.0" encoding="UTF-8"?>
<svg version="1.1" xmlns="http://www.w3.org/2000/svg" width="32" height="32">
<path d="M0 0 C4.03654111 1.9828623 6.6500056 4.16579861 9 8 C10.61788547 12.85365641 10.93894722 18.15633129 9.31640625 23.0703125 C7.04576216 27.42316549 4.44208873 30.01692467 0 32 C-5.60330397 32.74659407 -10.33129219 32.7747572 -15.5 30.375 C-20.3143755 25.80134327 -22.25156236 22.6912538 -22.5 16 C-22.25156236 9.3087462 -20.3143755 6.19865673 -15.5 1.625 C-10.34184625 -0.7698571 -5.59308489 -0.76722701 0 0 Z " fill="#100F0E" transform="translate(22,0)"/>
<path d="M0 0 C3.79379058 1.49041773 5.68343758 3.69062512 8 7 C8 7.66 8 8.32 8 9 C8.66 9 9.32 9 10 9 C10.226875 8.2575 10.45375 7.515 10.6875 6.75 C12.24407532 3.48860409 14.08518854 2.07105025 17 0 C17.25 6.625 17.25 6.625 15 10 C14.75812349 12.74518321 14.75812349 12.74518321 14.875 15.6875 C14.936875 18.3171875 14.936875 18.3171875 15 21 C10.71 21 6.42 21 2 21 C2.226875 19.288125 2.45375 17.57625 2.6875 15.8125 C3.13462354 11.09353404 2.85798948 8.8868657 0 5 C-0.1875 2.1875 -0.1875 2.1875 0 0 Z " fill="#9F9F9F" transform="translate(7,5)"/>
<path d="M0 0 C4.03654111 1.9828623 6.6500056 4.16579861 9 8 C10.61788547 12.85365641 10.93894722 18.15633129 9.31640625 23.0703125 C7.04576216 27.42316549 4.44208873 30.01692467 0 32 C-5.60330397 32.74659407 -10.33129219 32.7747572 -15.5 30.375 C-20.3143755 25.80134327 -22.25156236 22.6912538 -22.5 16 C-22.25156236 9.3087462 -20.3143755 6.19865673 -15.5 1.625 C-10.34184625 -0.7698571 -5.59308489 -0.76722701 0 0 Z M-19.07421875 8 C-21.14993478 12.48424728 -20.899464 17.23475455 -20 22 C-17.89864112 26.15251464 -15.20783398 28.36982575 -11.125 30.5 C-6.25446726 31.27928524 -2.26495546 31.36074623 1.99609375 28.80078125 C5.89081423 25.71577396 8.19273962 23.04537736 9 18 C8.97088554 13.0796564 8.28317486 8.81271919 5 5 C-3.42915324 -0.68781358 -12.40901383 -0.68430608 -19.07421875 8 Z " fill="#C4625C" transform="translate(22,0)"/>
<path d="M0 0 C0.99 0.66 1.98 1.32 3 2 C3.1875 4.625 3.1875 4.625 3 7 C2.34 6.01 1.68 5.02 1 4 C0.195625 4.94875 -0.60875 5.8975 -1.4375 6.875 C-2.11619141 7.67550781 -2.11619141 7.67550781 -2.80859375 8.4921875 C-4.0878152 10.00594079 -4.0878152 10.00594079 -5 12 C-5.66 12 -6.32 12 -7 12 C-8.3540932 10.01399663 -9.68457624 8.01182457 -11 6 C-12.29682374 4.63113049 -13.61823134 3.2830709 -15 2 C-9.84493014 -1.30453196 -5.791309 -1.46713161 0 0 Z " fill="#151515" transform="translate(22,2)"/>
<path d="M0 0 C1.37562854 1.28965176 2.70766393 2.62689293 4 4 C4 4.66 4 5.32 4 6 C4.66 6 5.32 6 6 6 C6.433125 4.7934375 6.433125 4.7934375 6.875 3.5625 C8 1 8 1 10 0 C9.67 2.97 9.34 5.94 9 9 C8.34 9 7.68 9 7 9 C6.67 10.98 6.34 12.96 6 15 C5.34 15 4.68 15 4 15 C1.0554321 10.00703705 0.36504064 5.66442374 0 0 Z " fill="#EBEAEB" transform="translate(11,8)"/>
<path d="M0 0 C2.3671875 1.0234375 2.3671875 1.0234375 4 2 C3.67 2.99 3.34 3.98 3 5 C2.195625 4.484375 1.39125 3.96875 0.5625 3.4375 C-3.98772825 1.60144298 -7.31256529 1.60214001 -12 3 C-15.00434566 4.79634834 -17.40783628 6.81567256 -19 10 C-19.22622081 11.70363822 -19.40888473 13.41328701 -19.5625 15.125 C-19.64628906 16.03507812 -19.73007812 16.94515625 -19.81640625 17.8828125 C-19.87699219 18.58148437 -19.93757813 19.28015625 -20 20 C-20.33 20 -20.66 20 -21 20 C-22.58746736 11.2689295 -22.58746736 11.2689295 -20.4375 6.625 C-14.2259249 -0.06438856 -8.91934091 -1.06833331 0 0 Z " fill="#BA5D58" transform="translate(22,0)"/>
<path d="M0 0 C0.33 0 0.66 0 1 0 C1.08636719 0.65226563 1.17273438 1.30453125 1.26171875 1.9765625 C2.25010556 8.12450983 3.3449722 11.76815655 8 16 C12.49331131 18.09687861 17.11342832 18.49449259 22 19 C22 19.33 22 19.66 22 20 C11.33775713 20.62110153 11.33775713 20.62110153 6.5 18.375 C0.22393696 12.41274011 0.22393696 12.41274011 -0.2421875 7.390625 C-0.2491859 4.91319051 -0.17577961 2.47068009 0 0 Z " fill="#CF6761" transform="translate(0,12)"/>
<path d="M0 0 C1.875 0.5 1.875 0.5 4 2 C5.75090827 6.16184478 6.35390985 9.65580004 5 14 C4.731875 13.443125 4.46375 12.88625 4.1875 12.3125 C3.01729551 9.92616415 3.01729551 9.92616415 1.375 7.5625 C-0.12991342 4.75788862 -0.2682825 3.12996247 0 0 Z " fill="#A67675" transform="translate(7,5)"/>
<path d="M0 0 C0.33 0 0.66 0 1 0 C1.31563182 5.26053037 0.66590937 8.44573816 -2 13 C-4 10 -4 10 -3.8125 7.625 C-2.91767444 4.73402511 -1.70849731 2.49155857 0 0 Z " fill="#B17977" transform="translate(23,5)"/>
</svg>
